<svg xmlns="http://www.w3.org/2000/svg" viewBox="0 0 64 64" role="img" aria-label="Rectangular Area Tool">
  <defs>
    <linearGradient id="area-field" x1="6" y1="7" x2="58" y2="57" gradientUnits="userSpaceOnUse"><stop stop-color="#075cdd"/><stop offset=".55" stop-color="#072b95"/><stop offset="1" stop-color="#03102a"/></linearGradient>
    <linearGradient id="area-gold" x1="14" y1="21" x2="51" y2="45" gradientUnits="userSpaceOnUse"><stop stop-color="#fff59c"/><stop offset=".42" stop-color="#ffd529"/><stop offset="1" stop-color="#f08a0c"/></linearGradient>
  </defs>
  <rect x="4" y="5" width="56" height="54" rx="7" fill="#01030a" stroke="#01030a" stroke-width="6"/>
  <rect x="6" y="7" width="52" height="50" rx="5" fill="url(#area-field)" stroke="#24bdf3" stroke-width="2"/>
  <path d="M23 8v48M41 8v48M7 24h50M7 41h50" fill="none" stroke="#168ed8" stroke-width="2"/>
  <path d="M14 20h37v27H14z" fill="#01030a" stroke="#01030a" stroke-width="5" stroke-linejoin="round"/>
  <path d="M15.5 21.5h34v24h-34z" fill="url(#area-gold)" stroke="#d7318f" stroke-width="2.5"/>
  <path d="M27 22v23M39 22v23M16 33.5h33" fill="none" stroke="#f08a0c" stroke-width="1.5" opacity=".75"/>
  <path d="M12 28v-9h9m23 0h9v9M12 39v9h9m23 0h9v-9" fill="none" stroke="#fff2a0" stroke-width="2.5" stroke-linecap="round" stroke-linejoin="round"/>
</svg>
